<svg xmlns="http://www.w3.org/2000/svg" viewBox="0 0 900 1200"><rect width="900" height="1200" fill="#0B1020"/><path d="M0 820L900 300V1200H0Z" fill="#13B8A6"/><circle cx="680" cy="300" r="220" fill="#FF5C8A"/><circle cx="690" cy="310" r="105" fill="#FFD166"/><path d="M130 170h300v70H130zM130 280h190v35H130z" fill="#F7F0DF"/><path d="M120 650c120-220 300-260 450-90-70 20-125 65-165 135-95-90-185-105-285-45Z" fill="#F7F0DF"/><path d="M520 690c95-80 170-85 260-25-70 90-150 120-250 90Z" fill="#1455D9"/><circle cx="635" cy="610" r="28" fill="#0B1020"/><circle cx="705" cy="575" r="28" fill="#0B1020"/><path d="M620 665q60 50 125 0" fill="none" stroke="#0B1020" stroke-width="14" stroke-linecap="round"/><text x="90" y="1050" font-family="Arial,sans-serif" font-size="54" font-weight="800" fill="#F7F0DF">FACES / 03</text><text x="90" y="1098" font-family="Arial,sans-serif" font-size="22" letter-spacing="5" fill="#F7F0DF">COLOR + FORM / ILLUSTRATION</text></svg>